# xmcd
# 
# Track frame offsets:
#     150
#     20192
#     35637
#     54507
#     77137
#     86957
#     100157
#     123182
#     150427
#     171697
#     192757
#     214917
#     246620
#     271667
# 
# Disc length: 3837
# 
# Revision: 21
# Processed by: cddbd v1.5.2PL0 Copyright (c) Steve Scherf et al.
# Submitted via: fre:ac v1.0.31
# 
DISCID=c70efb0e
DTITLE=Moby - Go: The Collected Mixes
DYEAR=1996
DGENRE=Electronic
TTITLE0=Go (Woodtick Mix)
TTITLE1=Go (Analog Mix)
TTITLE2=Go (Subliminal Mix)
TTITLE3=Go (Night Time Mix)
TTITLE4=Go (Original Mix)
TTITLE5=Go (Low Spirit Mix)
TTITLE6=Go (Rainforest Mix)
TTITLE7=Go (Delirium Mix)
TTITLE8=Go (Voodoo Child Mix)
TTITLE9=Go (Barracuda Mix)
TTITLE10=Go (Arpathoski Mix)
TTITLE11=Go (In Dub Mix)
TTITLE12=Go (Soundtrack Mix)
TTITLE13=Go (Amphetamix)
EXTD=
EXTT0=
EXTT1=
EXTT2=
EXTT3=
EXTT4=
EXTT5=
EXTT6=
EXTT7=
EXTT8=
EXTT9=
EXTT10=
EXTT11=
EXTT12=
EXTT13=
PLAYORDER=
